HIERARCHY
ROOT hip
{
  OFFSET 0 0 0
  CHANNELS 6 Xposition Yposition Zposition Zrotation Yrotation Xrotation
  JOINT abdomen
  {
    OFFSET 0 20.6881 -0.73152
    CHANNELS 3 Zrotation Xrotation Yrotation
    JOINT chest
    {
      OFFSET 0 11.7043 -0.48768
      CHANNELS 3 Zrotation Xrotation Yrotation
      JOINT neck
      {
        OFFSET 0 22.1894 -2.19456
        CHANNELS 3 Zrotation Xrotation Yrotation
        JOINT head
        {
          OFFSET -0.24384 7.07133 1.2192
          CHANNELS 3 Zrotation Xrotation Yrotation
          JOINT leftEye
          {
            OFFSET 4.14528 8.04674 8.04672
            CHANNELS 3 Zrotation Xrotation Yrotation
            End Site
            {
              OFFSET 1 0 0
            }
          }
          JOINT rightEye
          {
            OFFSET -3.6576 8.04674 8.04672
            CHANNELS 3 Zrotation Xrotation Yrotation
            End Site
            {
              OFFSET 1 0 0
            }
          }
        }
      }
      JOINT rCollar
      {
        OFFSET -2.68224 19.2634 -4.8768
        CHANNELS 3 Zrotation Xrotation Yrotation
        JOINT rShldr
        {
          OFFSET -8.77824 -1.95073 1.46304
          CHANNELS 3 Zrotation Xrotation Yrotation
          JOINT rForeArm
          {
            OFFSET -28.1742 -1.7115 0.48768
            CHANNELS 3 Zrotation Xrotation Yrotation
            JOINT rHand
            {
              OFFSET -22.5879 0.773209 7.07136
              CHANNELS 3 Zrotation Xrotation Yrotation
              JOINT rThumb1
              {
                OFFSET -1.2192 -0.487915 3.41376
                CHANNELS 3 Zrotation Xrotation Yrotation
                JOINT rThumb2
                {
                  OFFSET -3.37035 -0.52449 3.41376
                  CHANNELS 3 Zrotation Xrotation Yrotation
                  End Site
                  {
                    OFFSET -1.78271 -1.18214 1.43049
                  }
                }
              }
              JOINT rIndex1
              {
                OFFSET -7.75947 0.938293 5.60832
                CHANNELS 3 Zrotation Xrotation Yrotation
                JOINT rIndex2
                {
                  OFFSET -2.54057 -0.884171 1.56538
                  CHANNELS 3 Zrotation Xrotation Yrotation
                  End Site
                  {
                    OFFSET -1.62519 -0.234802 1.16502
                  }
                }
              }
              JOINT rMid1
              {
                OFFSET -8.24714 1.18213 3.41376
                CHANNELS 3 Zrotation Xrotation Yrotation
                JOINT rMid2
                {
                  OFFSET -3.10165 -0.590103 1.0647
                  CHANNELS 3 Zrotation Xrotation Yrotation
                  End Site
                  {
                    OFFSET -2.48547 -0.328903 0.83742
                  }
                }
              }
              JOINT rRing1
              {
                OFFSET -8.82822 0.546677 1.51678
                CHANNELS 3 Zrotation Xrotation Yrotation
                JOINT rRing2
                {
                  OFFSET -2.60934 -0.819778 -0.0198488
                  CHANNELS 3 Zrotation Xrotation Yrotation
                  End Site
                  {
                    OFFSET -2.33842 -0.294052 0.168128
                  }
                }
              }
              JOINT rPinky1
              {
                OFFSET -8.27202 -0.0477905 -0.4584
                CHANNELS 3 Zrotation Xrotation Yrotation
                JOINT rPinky2
                {
                  OFFSET -1.82734 -0.647385 -0.700984
                  CHANNELS 3 Zrotation Xrotation Yrotation
                  End Site
                  {
                    OFFSET -1.69225 -0.51767 -0.607171
                  }
                }
              }
            }
          }
        }
      }
      JOINT lCollar
      {
        OFFSET 2.68224 19.2634 -4.8768
        CHANNELS 3 Zrotation Xrotation Yrotation
        JOINT lShldr
        {
          OFFSET 8.77824 -1.95073 1.46304
          CHANNELS 3 Zrotation Xrotation Yrotation
          JOINT lForeArm
          {
            OFFSET 28.1742 -1.7115 0.48768
            CHANNELS 3 Zrotation Xrotation Yrotation
            JOINT lHand
            {
              OFFSET 22.5879 0.773209 7.07136
              CHANNELS 3 Zrotation Xrotation Yrotation
              JOINT lThumb1
              {
                OFFSET 1.2192 -0.487915 3.41376
                CHANNELS 3 Zrotation Xrotation Yrotation
                JOINT lThumb2
                {
                  OFFSET 3.37035 -0.52449 3.41376
                  CHANNELS 3 Zrotation Xrotation Yrotation
                  End Site
                  {
                    OFFSET 1.78271 -1.18214 1.43049
                  }
                }
              }
              JOINT lIndex1
              {
                OFFSET 7.75947 0.938293 5.60832
                CHANNELS 3 Zrotation Xrotation Yrotation
                JOINT lIndex2
                {
                  OFFSET 2.54057 -0.884171 1.56538
                  CHANNELS 3 Zrotation Xrotation Yrotation
                  End Site
                  {
                    OFFSET 1.62519 -0.234802 1.16502
                  }
                }
              }
              JOINT lMid1
              {
                OFFSET 8.24714 1.18213 3.41376
                CHANNELS 3 Zrotation Xrotation Yrotation
                JOINT lMid2
                {
                  OFFSET 3.10165 -0.590103 1.0647
                  CHANNELS 3 Zrotation Xrotation Yrotation
                  End Site
                  {
                    OFFSET 2.48547 -0.328903 0.83742
                  }
                }
              }
              JOINT lRing1
              {
                OFFSET 8.82822 0.546677 1.51678
                CHANNELS 3 Zrotation Xrotation Yrotation
                JOINT lRing2
                {
                  OFFSET 2.60934 -0.819778 -0.0198488
                  CHANNELS 3 Zrotation Xrotation Yrotation
                  End Site
                  {
                    OFFSET 2.33842 -0.294052 0.168128
                  }
                }
              }
              JOINT lPinky1
              {
                OFFSET 8.27202 -0.0477905 -0.4584
                CHANNELS 3 Zrotation Xrotation Yrotation
                JOINT lPinky2
                {
                  OFFSET 1.82734 -0.647385 -0.700984
                  CHANNELS 3 Zrotation Xrotation Yrotation
                  End Site
                  {
                    OFFSET 1.69225 -0.51767 -0.607171
                  }
                }
              }
            }
          }
        }
      }
    }
  }
  JOINT rButtock
  {
    OFFSET -8.77824 4.35084 1.2192
    CHANNELS 3 Zrotation Xrotation Yrotation
    JOINT rThigh
    {
      OFFSET 0 -1.70687 -2.19456
      CHANNELS 3 Zrotation Xrotation Yrotation
      JOINT rShin
      {
        OFFSET 0 -36.8199 0.73152
        CHANNELS 3 Zrotation Xrotation Yrotation
        JOINT rFoot
        {
          OFFSET 0.73152 -45.1104 -5.12064
          CHANNELS 3 Zrotation Xrotation Yrotation
          End Site
          {
            OFFSET -1.1221 -3.69964 12.103
          }
        }
      }
    }
  }
  JOINT lButtock
  {
    OFFSET 8.77824 4.35084 1.2192
    CHANNELS 3 Zrotation Xrotation Yrotation
    JOINT lThigh
    {
      OFFSET 0 -1.70687 -2.19456
      CHANNELS 3 Zrotation Xrotation Yrotation
      JOINT lShin
      {
        OFFSET 0 -36.8199 0.73152
        CHANNELS 3 Zrotation Xrotation Yrotation
        JOINT lFoot
        {
          OFFSET -0.73152 -45.1104 -5.12064
          CHANNELS 3 Zrotation Xrotation Yrotation
          End Site
          {
            OFFSET 1.1221 -3.69964 12.103
          }
        }
      }
    }
  }
}
MOTION
Frames:	8
Frame Time:	0.03333
-2.6407 74.3889 -4.5846 -125.680716 -79.604179 130.55484 3.096606 3.738777 89.933077 -5.726446 -6.095442 -91.503173 -17.487672 22.45544 -56.144493 25.110623 -1.939712 17.171902 -0.000712 -0.0 0.000305 -0.000712 -0.0 0.000305 -149.903374 22.427244 154.973878 175.695915 18.603343 -177.536536 -170.668805 -37.924985 38.03166 170.184608 -24.195519 142.588671 -3.257385 3.182542 0.588197 5.168042 -5.721709 -1.894771 -85.93573 41.965203 71.962575 168.101628 -47.096032 105.797454 -6.758064 17.353414 4.406727 -141.701167 40.78816 129.405343 0.003474 2.373032 0.744666 9.63815 -61.895412 -8.992861 -10.035301 -20.645831 -9.502007 -2.951454 -14.13422 -5.210834 157.04661 -15.018421 -164.141257 -88.494527 -49.188501 -139.834347 97.599889 -34.301728 -22.286313 166.137662 -63.422878 -171.911893 172.505127 -10.18349 -89.934963 -160.245502 -34.856204 -99.549227 -13.542152 -24.24515 5.415231 -12.878174 2.105297 1.096078 161.311505 -8.654405 -143.5338 13.648968 36.281752 -11.085058 -0.006082 1.078106 -0.339005 0.477879 53.796985 -12.797252 99.270074 -46.960303 97.490926 113.397171 -41.704791 112.927618 0.000248 -0.000498 -0.001046 5.423614 -7.604345 13.5979 30.738565 49.292001 76.573501 -113.546576 -28.019308 -169.740009 -0.004357 -0.000498 -0.004627 12.518231 -60.245365 171.586496 43.926698 -68.927261 120.428129 166.855599 68.671932 -86.973856
-3.1952000000000003 74.1262 -4.7261999999999995 -87.738208 -80.781317 92.609902 8.64338 3.027413 -80.795347 5.721312 0.421729 79.865081 -8.778213 36.620478 -161.822201 8.949341 36.207314 114.800122 0.00236 -0.0 -0.002095 0.002588 0.0 0.006001 -2.642174 13.380431 3.313848 31.866805 -27.563973 23.137786 -1.899353 4.789169 126.607382 -5.968062 10.31463 -0.828923 -109.906913 34.580564 64.632992 -140.518888 -18.848619 74.656124 -8.345003 12.214854 5.293958 24.389812 -20.347872 -0.966043 8.098032 -25.420276 -3.045431 -129.660981 51.890357 118.765142 0.001523 0.06479 0.019202 10.172282 2.09976 0.202624 1.907599 5.201326 1.746817 23.801373 68.992315 8.685407 143.460867 38.536318 -147.910447 149.385986 4.463661 -94.240628 177.84889 65.842774 73.729331 16.127517 -46.090973 12.206215 173.612146 -11.281826 -89.898839 -7.938522 -59.239841 -10.846846 -62.474691 -71.115227 -17.350367 -6.398972 16.537762 1.662853 -44.392171 -75.412122 -17.75848 171.28484 -28.335885 -144.058842 0.00029 -0.068778 0.022086 156.322325 -19.365976 -174.125076 88.048129 -50.114149 86.396803 -16.715137 42.53623 -7.170128 179.937394 75.750007 0.049983 -154.203014 68.549898 -48.933993 -14.676098 48.744306 110.942883 -90.745008 -44.968584 -154.859101 0.000329 0.000482 0.001526 7.782649 -62.073376 146.142237 50.522363 -63.693402 -52.13219 -111.424129 56.185722 17.043473
-3.5198 73.7162 -4.8444 -55.223534 -77.887079 59.991595 4.416898 2.68687 84.32465 -4.423825 -6.715683 -85.72589 -9.275777 18.079433 2.587151 3.391023 -20.087201 -49.866601 0.001704 -0.0 -0.000866 -0.004536 0.0 -0.000359 -125.668047 57.852262 129.40885 -36.561219 49.404037 44.008439 -6.189556 9.560141 -171.030862 170.886113 -28.735844 142.190321 -14.591976 13.4654 3.912565 -88.999512 12.108646 82.603227 -1.65811 2.641052 0.960993 -149.580026 3.878935 108.613545 -4.76468 12.739711 2.98937 -142.596723 39.71304 130.135333 0.003585 0.770816 0.24168 -153.771791 17.451781 169.374717 -10.011527 -20.606157 -9.477803 -168.157269 74.092912 -147.22222 -3.751174 -33.373106 6.454802 -104.727773 28.474044 77.152073 -8.82736 3.029731 -107.890588 14.981888 -35.109985 8.767286 3.564721 3.479328 -0.652762 35.746746 24.62111 -33.518714 -110.824061 -76.304701 -59.834087 -39.661327 -38.416656 3.941496 150.794678 19.309846 -137.033671 139.782612 42.487009 -127.643864 145.10497 -1.164975 178.762107 147.17398 -45.477525 169.697833 145.578855 13.3615 142.181343 148.93907 15.731678 142.594629 179.971117 75.749182 0.023858 -149.724192 68.865682 51.823383 44.016031 3.740959 -93.097917 -61.33553 -1.151309 -18.493125 179.961247 75.750893 0.031987 -178.152897 11.851721 175.392881 -55.96943 -73.037804 -100.259305 146.258251 39.537039 138.043352
-3.6191 73.1952 -4.9885 -37.572465 -73.357177 42.349709 4.352648 2.530017 90.367316 -4.586195 -6.599555 -92.350327 -9.484861 38.960918 -159.335329 12.924232 40.502376 104.727944 -0.004627 -0.0 0.006112 0.000601 -0.0 -0.002263 -84.465834 68.236203 87.606499 21.282237 -13.695201 31.578244 -24.385577 83.668016 -152.897187 -177.802847 -2.280977 142.956603 89.791271 -50.89483 38.207894 -91.725696 38.355359 52.733603 -9.501146 13.693171 6.102467 6.760457 4.494584 0.153524 -156.770623 4.772741 141.127844 -177.157863 -43.082276 142.238692 -1.390385 -20.540035 -6.794104 10.668049 15.398824 1.72558 1.250825 3.359727 1.148418 -146.467018 8.645132 -142.953181 156.023362 -7.042961 -162.571815 88.745738 17.645309 -42.535473 -3.235745 -26.704843 141.936399 151.646366 24.022922 -132.938688 -178.93257 -18.469433 -89.092406 -20.096956 -67.723343 -14.462376 142.248779 -1.029122 -117.07259 -0.324971 17.268233 5.74557 163.602405 -15.947076 -144.419236 -14.995926 -34.405839 0.661121 -0.005941 1.504839 -0.473162 -8.159043 20.84033 -2.965386 126.240229 -27.337217 123.971137 -16.097635 39.801168 -6.134308 -179.999827 75.749058 2.5e-05 -143.433341 68.055757 73.12381 44.22272 -25.317931 -15.907514 121.233755 68.560397 135.962657 -179.995337 75.75078 -0.003012 179.263565 12.867134 0.1394 26.562227 70.630444 -119.475182 145.124455 45.102607 -66.174114
-3.5520000000000005 72.61619999999999 -5.056 -27.607814 -68.776107 32.61452 3.395784 4.100152 46.324025 0.18041 -9.051212 -49.114786 -17.743034 25.33984 -49.283665 29.523034 -7.458971 0.999136 0.002805 0.0 0.001728 -0.0029 -0.0 0.00199 -159.01208 -56.382812 172.415083 163.797614 43.938808 -169.483394 -168.052846 24.471415 -4.857136 -176.851273 -11.699888 143.623928 -147.247207 13.858526 85.176252 2.318168 -41.712204 20.14581 72.420953 -73.391875 25.705235 -160.168704 -21.652807 115.117955 9.837579 -30.839927 -3.238589 6.881963 -11.513091 -1.138536 -145.027605 -4.5001 -177.709038 -2.5453 -55.850448 -23.761677 -12.555321 -24.414564 -11.934897 26.837405 72.415603 7.354572 -4.277509 -49.153561 9.587668 -96.271616 24.693951 92.621586 -178.203319 -1.59487 -34.628133 146.513379 30.676323 -128.030665 175.197645 -12.845159 -89.807406 49.914833 -12.422936 -8.032324 172.610609 -51.560044 -120.292584 -158.204585 -63.259888 -94.923246 163.277029 -14.900434 -144.311138 168.320219 -19.91087 -143.894251 145.117159 2.831641 -179.981132 143.280686 -54.583105 165.264433 119.803733 -34.375249 117.696152 48.028099 -51.042016 49.211671 -0.001513 -0.000286 0.001018 13.925482 -2.7852 58.481387 41.515015 12.622097 -43.113294 153.799571 -52.234034 72.649555 -179.979828 75.748889 -0.014613 176.080506 11.352671 20.266013 64.915531 45.135111 -0.895924 -160.417908 0.891396 72.905898
-3.5391 71.9986 -5.2481 -21.242596 -65.092917 26.499872 2.890235 0.332483 161.977982 -6.752735 0.128046 -165.929359 3.592538 28.949684 89.994442 -30.57738 7.993765 -143.722484 -0.000917 -0.0 0.000784 0.004786 0.0 0.000643 -153.339895 8.639724 159.024896 -55.990864 46.746639 38.992177 173.666121 -73.70687 -4.114986 -159.000819 22.795149 134.86365 -168.663486 -6.342312 89.896656 -165.757834 -5.500796 85.991405 145.019125 -73.560852 90.210597 0.035703 25.804065 0.022676 10.254925 -32.114925 -3.259147 -168.104255 -19.364708 144.252402 -145.111496 -0.657376 -178.922417 -155.555525 2.262837 -179.510861 32.795939 83.657876 5.571476 -143.279903 -2.871231 -138.60543 127.362262 56.771145 -131.145418 -73.861127 4.470959 -69.564073 1.303716 -26.837381 -108.567404 12.787507 -44.20458 11.270408 -4.383771 -4.367906 0.510125 26.512586 22.81149 -21.106678 -11.400075 -20.263206 4.908467 80.720769 48.3609 -64.959443 -10.859205 -33.917132 3.266829 160.447188 3.978025 -142.17452 -0.000972 0.11588 -0.038858 64.22277 78.723727 -77.553477 159.378775 64.178274 151.040616 -25.073818 66.080017 -5.455314 -179.994672 75.750845 -0.005049 -137.091015 65.515996 -140.028513 -43.593494 -0.864869 84.290908 -66.964958 2.862049 -22.221582 0.000259 -0.000128 8.1e-05 -14.156562 -65.040168 4.350944 56.536097 59.673943 -155.699388 160.218902 -21.332192 -91.5447
-3.5798000000000005 71.3878 -5.3743 -20.280079 -62.323554 25.187291 1.803589 2.91228 100.573357 -5.33124 -7.558846 -104.463169 -7.84037 20.702169 10.626884 -0.507781 -22.915976 -64.673775 -0.002297 -0.0 0.001395 -0.002297 -0.0 0.001395 -159.145788 -43.245923 169.420327 162.618959 -7.786907 -171.998372 -138.904706 37.402798 -28.414962 -166.86163 -23.647947 153.575237 -0.538411 0.530641 0.08623 -139.151835 -43.546817 119.111951 -125.538099 21.142128 105.748055 -3.249833 18.602202 -3.752589 -102.196699 58.894356 93.123327 -8.363292 28.317617 7.091668 -0.009022 -0.904726 -0.282887 -156.272157 -19.920271 174.193736 -138.538607 -6.006235 -135.752956 3.3608 1.758456 -1.382853 158.920696 -37.390166 -168.279713 81.391946 35.055489 -16.2775 59.227246 23.057756 158.173089 171.932399 -53.774728 -160.821845 160.79997 1.482907 -89.016289 34.625584 -25.26189 -11.617375 1.334347 2.134852 -0.772218 17.604509 32.100614 -13.157495 13.613394 30.235456 -9.784196 97.550779 63.107268 -88.970924 145.109007 -0.893586 178.846677 139.747281 -59.272843 161.920251 138.520614 -6.053804 135.731795 176.0116 75.073552 139.619242 179.992833 75.749624 0.005318 -139.022344 66.719609 43.651099 56.731394 -6.776861 89.295988 -112.822424 46.225529 -131.313641 -0.000253 1.8e-05 6e-05 -16.474819 -65.827638 7.562303 63.297494 55.156279 -165.307197 151.696844 21.518817 -78.190858
-3.5236000000000005 70.90090000000001 -5.4156 -21.606615 -61.152785 25.686052 4.191052 2.223143 158.685783 -7.414787 -0.925892 -161.529503 1.895786 25.354705 66.130234 -28.247506 -5.215188 -123.464319 0.002977 -0.0 -0.002466 -0.002726 0.0 -0.002423 -141.85368 41.370465 146.199684 110.782995 -46.177709 111.72092 -143.884806 -89.438926 -21.309682 -24.213889 -63.693273 -22.606506 -173.762687 -11.431443 89.892674 -94.498234 12.715309 37.295878 -56.295882 42.072698 45.303013 -148.415472 13.783015 108.779538 -3.746095 10.215745 2.297834 -13.903583 37.216256 11.093898 -145.0785 5.440533 179.159445 -93.219481 -77.250534 -114.38329 1.837389 5.01279 1.686556 -0.666276 -7.927924 -2.649751 148.810161 25.866107 -153.741073 111.326867 5.55484 -78.606085 8.33846 -30.834336 150.521502 154.332252 16.624336 -137.367858 162.273586 0.036418 -89.260509 118.362893 8.672222 -55.085654 141.617398 0.005173 -116.717919 118.972176 46.177916 -94.880628 43.661048 55.227504 -36.99851 0.55545 11.102151 -1.954152 -0.003457 0.486149 -0.153173 156.619341 -33.249008 -175.766179 -8.832035 28.154276 -7.736687 164.694975 66.905663 149.237787 0.017365 -0.000951 0.012394 17.979581 -3.651323 -97.568696 -57.015313 4.041316 -71.629442 -170.52393 -7.769008 -114.858528 -0.007556 0.000781 -0.006525 -16.134292 -68.693812 177.406376 -76.204791 -64.145336 -58.412148 -60.411247 51.462046 156.387437
